# Blender v2.93.1 OBJ File: 'bash.blend'
# www.blender.org
mtllib bash.mtl
o Base
v 0.003905 0.001151 0.503353
v 0.997943 1.002665 0.501590
v 0.675449 0.705085 0.391747
v 0.454894 0.925640 0.495718
v 0.897163 0.482402 0.496493
v 0.676608 0.702958 0.600464
v 0.677241 0.702705 0.437607
v 0.682017 0.697387 0.552446
v 0.557959 0.821987 0.493837
v 0.801299 0.578105 0.496216
vt 0.375000 0.375000
vt 0.625000 0.375000
vt 0.375000 0.500000
vt 0.375000 0.937500
vt 0.625000 0.937500
vt 0.375000 1.000000
vt 0.250000 0.500000
vt 0.375000 0.750000
vt 0.250000 0.750000
vt 0.812500 0.500000
vt 0.875000 0.750000
vt 0.812500 0.750000
vt 0.625000 0.500000
vt 0.750000 0.500000
vt 0.750000 0.750000
vt 0.187500 0.500000
vt 0.187500 0.750000
vt 0.625000 0.750000
vt 0.625000 0.875000
vt 0.375000 0.875000
vt 0.375000 0.312500
vt 0.625000 0.312500
vt 0.625000 0.250000
vt 0.125000 0.500000
vn -0.0452 0.3886 -0.9203
vn 0.1925 -0.2543 0.9478
vn 0.3736 -0.0633 -0.9254
vn -0.2602 0.1866 0.9474
vn -0.0629 0.3728 0.9258
vn -0.7065 -0.7077 -0.0091
vn 0.3596 -0.0788 0.9298
vn -0.7092 -0.7050 -0.0089
vn -0.2729 0.1732 -0.9463
vn 0.1824 -0.2639 -0.9471
vn -0.7091 -0.7051 0.0019
vn -0.7065 -0.7077 0.0025
usemtl BaseMaterial
f 3/1/1 4/2/1 2/3/1
f 10/4/2 8/5/2 1/6/2
f 3/7/3 2/8/3 5/9/3
f 9/10/4 1/11/4 8/12/4
f 2/13/5 4/14/5 6/15/5
f 7/16/6 3/7/6 5/9/6 10/17/6
f 2/18/7 6/19/7 5/20/7
f 7/21/8 9/22/8 4/2/8 3/1/8
f 1/23/9 9/22/9 7/21/9
f 1/24/10 7/16/10 10/17/10
f 4/14/11 9/10/11 8/12/11 6/15/11
f 5/20/12 6/19/12 8/5/12 10/4/12
