# Blender v2.93.1 OBJ File: ''
# www.blender.org
mtllib spirit_edge_overlay.mtl
o Overlay
v 0.506941 0.901647 0.460414
v 0.670805 1.387790 0.497412
v 0.564558 0.897172 0.500424
v 0.432755 0.908588 0.496762
v 0.466552 0.401169 0.461146
v 0.368885 0.398739 0.497379
v 0.363866 0.525986 0.497352
v 0.456376 0.526214 0.461187
v 0.540674 0.527771 0.493892
v 0.543314 0.403157 0.497677
v 0.462024 0.651309 0.461077
v 0.370392 0.653899 0.497228
v 0.394832 0.781121 0.496942
v 0.482794 0.776275 0.460792
v 0.547295 0.772948 0.498414
v 0.541007 0.649441 0.497892
v 0.496209 0.150651 0.460931
v 0.477920 0.276172 0.461045
v 0.554056 0.279496 0.497530
v 0.574280 0.155087 0.497273
v 0.424100 0.143524 0.494121
v 0.385500 0.271658 0.497433
v 0.651118 -0.330759 0.497676
v 0.424100 0.143524 0.494121
v 0.651118 -0.330759 0.497676
v 0.500073 0.150609 0.531986
v 0.574280 0.155087 0.497273
v 0.541007 0.649441 0.497892
v 0.458445 0.651257 0.531724
v 0.454710 0.526214 0.531678
v 0.540674 0.527771 0.493892
v 0.370392 0.653899 0.497228
v 0.363866 0.525986 0.497352
v 0.432755 0.908588 0.496762
v 0.394832 0.781121 0.496942
v 0.473348 0.776373 0.531891
v 0.496997 0.901875 0.532127
v 0.564558 0.897172 0.500424
v 0.547295 0.772948 0.498414
v 0.670805 1.387790 0.497412
v 0.543314 0.403157 0.497677
v 0.462424 0.401225 0.531670
v 0.477935 0.276092 0.531772
v 0.554056 0.279496 0.497530
v 0.368885 0.398739 0.497379
v 0.385500 0.271658 0.497433
vt 0.343750 0.500000
vt 0.343750 0.750000
vt 0.375000 0.750000
vt 0.375000 0.468750
vt 0.375000 0.500000
vt 0.625000 0.468750
vt 0.375000 0.343750
vt 0.375000 0.375000
vt 0.625000 0.375000
vt 0.625000 0.343750
vt 0.218750 0.500000
vt 0.218750 0.750000
vt 0.250000 0.750000
vt 0.250000 0.500000
vt 0.375000 0.406250
vt 0.375000 0.437500
vt 0.625000 0.437500
vt 0.625000 0.406250
vt 0.281250 0.500000
vt 0.281250 0.750000
vt 0.312500 0.750000
vt 0.312500 0.500000
vt 0.156250 0.500000
vt 0.156250 0.750000
vt 0.187500 0.750000
vt 0.187500 0.500000
vt 0.375000 0.281250
vt 0.375000 0.312500
vt 0.625000 0.312500
vt 0.625000 0.281250
vt 0.625000 0.250000
vt 0.125000 0.500000
vt 0.843750 0.500000
vt 0.843750 0.750000
vt 0.875000 0.750000
vt 0.375000 0.968750
vt 0.375000 1.000000
vt 0.625000 0.968750
vt 0.375000 0.843750
vt 0.375000 0.875000
vt 0.625000 0.875000
vt 0.625000 0.843750
vt 0.718750 0.500000
vt 0.718750 0.750000
vt 0.750000 0.750000
vt 0.750000 0.500000
vt 0.656250 0.500000
vt 0.656250 0.750000
vt 0.687500 0.750000
vt 0.687500 0.500000
vt 0.375000 0.781250
vt 0.375000 0.812500
vt 0.625000 0.812500
vt 0.625000 0.781250
vt 0.625000 0.750000
vt 0.625000 0.500000
vt 0.375000 0.906250
vt 0.375000 0.937500
vt 0.625000 0.937500
vt 0.625000 0.906250
vt 0.781250 0.500000
vt 0.781250 0.750000
vt 0.812500 0.750000
vt 0.812500 0.500000
vn -0.5592 0.1261 0.8194
vn 0.4147 -0.2072 0.8860
vn 0.3554 0.0214 0.9345
vn -0.3948 -0.0065 0.9187
vn -0.3933 -0.0057 0.9194
vn 0.3704 -0.0643 0.9266
vn -0.4585 0.0491 0.8873
vn 0.4004 -0.0963 0.9113
vn -0.5309 0.0826 0.8434
vn -0.3917 -0.0050 0.9201
vn 0.3653 -0.0167 0.9307
vn -0.4183 -0.0657 0.9059
vn -0.4230 -0.0670 0.9037
vn -0.4234 -0.0666 0.9035
vn 0.3840 0.0737 0.9204
vn -0.4295 -0.0391 0.9022
vn 0.3554 0.0393 0.9339
vn 0.3941 0.1953 0.8981
vn -0.4181 -0.0654 0.9061
vn 0.4228 0.1957 -0.8849
vn -0.4130 -0.0695 -0.9081
vn -0.4194 -0.0671 -0.9053
vn -0.4190 -0.0671 -0.9055
vn -0.3910 0.0215 -0.9201
vn 0.3588 -0.0148 -0.9333
vn 0.4326 -0.1051 -0.8954
vn -0.4137 0.0762 -0.9072
vn -0.4136 0.0759 -0.9073
vn -0.4181 0.0845 -0.9044
vn -0.4184 0.0851 -0.9043
vn 0.4520 -0.2234 -0.8636
vn 0.3818 -0.0600 -0.9223
vn -0.3938 0.0361 -0.9185
vn -0.3958 -0.0361 -0.9176
vn -0.3970 -0.0417 -0.9169
vn -0.3969 -0.0415 -0.9169
vn 0.3445 0.0433 -0.9378
vn 0.3485 0.0175 -0.9371
vn -0.3945 -0.0303 -0.9184
vn -0.4129 -0.0698 -0.9081
vn 0.3859 0.1036 -0.9167
usemtl OverlayTexture
s 1
f 1/1/1 3/2/1 2/3/1
f 1/4/2 2/5/2 4/6/2
f 5/7/3 8/8/3 7/9/3 6/10/3
f 5/11/4 10/12/4 9/13/5 8/14/5
f 11/15/6 14/16/6 13/17/6 12/18/6
f 11/19/7 16/20/7 15/21/7 14/22/7
f 14/16/8 1/4/8 4/6/8 13/17/8
f 14/22/9 15/21/9 3/2/9 1/1/9
f 8/14/5 9/13/5 16/20/10 11/19/10
f 8/8/11 11/15/11 12/18/11 7/9/11
f 17/23/12 20/24/13 19/25/14 18/26/14
f 17/27/15 18/28/15 22/29/15 21/30/15
f 18/26/16 19/25/16 10/12/16 5/11/16
f 18/28/17 5/7/17 6/10/17 22/29/17
f 23/31/18 17/27/18 21/30/18
f 23/32/19 20/24/13 17/23/12
f 24/33/20 26/34/20 25/35/20
f 27/36/21 25/37/22 26/38/23
f 28/39/24 31/40/24 30/41/24 29/42/24
f 32/43/25 29/44/25 30/45/25 33/46/25
f 34/47/26 37/48/26 36/49/26 35/50/26
f 38/51/27 39/52/28 36/53/28 37/54/29
f 40/55/30 38/51/27 37/54/29
f 40/56/31 37/48/31 34/47/31
f 35/50/32 36/49/32 29/44/32 32/43/32
f 39/52/33 28/39/33 29/42/33 36/53/33
f 41/57/34 44/58/35 43/59/35 42/60/36
f 45/61/37 42/62/37 43/63/37 46/64/37
f 33/46/38 30/45/38 42/62/38 45/61/38
f 31/40/39 41/57/34 42/60/36 30/41/39
f 44/58/40 27/36/21 26/38/23 43/59/40
f 46/64/41 43/63/41 26/34/41 24/33/41
