# Blender v2.93.1 OBJ File: ''
# www.blender.org
mtllib arrow_overlay.mtl
o Cube.001
v 0.317793 -0.051340 0.000056
v 0.369845 -0.000208 0.059198
v -0.460230 -0.000208 0.059198
v -0.460230 -0.051340 0.000056
v -0.460230 -0.000208 -0.058446
v -0.460230 0.050923 0.000056
v 0.187293 0.178773 0.000056
v 0.369845 -0.000208 0.085229
v 0.578084 -0.000208 0.000056
v 0.317010 0.050923 0.000056
v 0.369845 -0.000209 -0.058446
v 0.369845 -0.000209 -0.085979
v 0.183893 -0.181299 0.000056
vt 0.625000 0.625000
vt 0.625000 0.750000
vt 0.875000 0.750000
vt 0.875000 0.625000
vt 0.375000 0.750000
vt 0.375000 1.000000
vt 0.625000 1.000000
vt 0.375000 0.125000
vt 0.375000 0.250000
vt 0.625000 0.125000
vt 0.125000 0.625000
vt 0.125000 0.750000
vt 0.375000 0.625000
vt 0.375000 0.625000
vt 0.625000 0.625000
vt 0.125000 0.625000
vt 0.375000 0.000000
vt 0.375000 0.125000
vt 0.625000 0.125000
vt 0.625000 0.000000
vt 0.875000 0.625000
vt 0.875000 0.500000
vt 0.375000 0.500000
vt 0.625000 0.500000
vn 0.0000 0.7565 -0.6540
vn 1.0000 0.0000 0.0000
vn -0.2918 -0.6371 -0.7134
vn -0.0000 -0.7529 0.6581
vn 0.0000 0.7529 0.6581
vn 0.6969 -0.7171 -0.0045
vn 0.6969 -0.7171 0.0000
vn 0.7012 0.7129 -0.0000
vn 0.7012 0.7129 0.0069
vn 0.0000 -0.7565 -0.6540
vn 0.6969 -0.7171 0.0046
vn -0.2922 0.6360 -0.7143
vn -0.2933 -0.6404 0.7099
vn -0.2937 0.6392 0.7108
vn 0.7012 0.7129 -0.0070
usemtl Material.002
s 1
f 1/1/1 4/2/1 3/3/1 2/4/1
f 5/5/2 6/6/2 3/7/2 4/2/2
f 7/8/3 9/9/3 8/10/3
f 10/11/4 6/12/4 5/5/4 11/13/4
f 11/13/5 5/5/5 4/2/5 1/1/5
f 12/14/6 11/13/6 1/1/7 13/15/7
f 7/16/8 10/11/8 11/13/9 12/14/9
f 6/17/10 10/18/10 2/19/10 3/20/10
f 13/15/7 1/1/7 2/4/11 8/21/11
f 9/22/12 13/15/12 8/21/12
f 9/23/13 7/16/13 12/14/13
f 9/24/14 12/14/14 13/15/14
f 10/18/8 7/8/8 8/10/15 2/19/15
