# Blender v2.93.1 OBJ File: 'arrow.blend'
# www.blender.org
mtllib arrow.mtl
o Cube
v 0.555546 -0.000208 0.000056
v -0.444454 -0.035564 0.000056
v -0.444454 -0.000208 -0.042371
v -0.444454 -0.000208 0.042482
v -0.444454 0.035147 0.000056
v 0.345558 0.035147 0.000056
v 0.347091 -0.035564 0.000056
v 0.381865 -0.000208 0.042482
v 0.381865 -0.000209 -0.042371
v 0.381865 -0.000208 0.070766
v 0.381865 -0.000209 -0.070655
v 0.229363 0.149475 0.000056
v 0.228968 -0.151249 0.000056
vt 0.625000 0.625000
vt 0.875000 0.625000
vt 0.875000 0.750000
vt 0.625000 0.750000
vt 0.375000 0.750000
vt 0.625000 1.000000
vt 0.375000 1.000000
vt 0.375000 0.125000
vt 0.625000 0.125000
vt 0.375000 0.250000
vt 0.125000 0.625000
vt 0.375000 0.625000
vt 0.125000 0.750000
vt 0.375000 0.625000
vt 0.625000 0.625000
vt 0.125000 0.625000
vt 0.375000 0.000000
vt 0.625000 0.000000
vt 0.625000 0.125000
vt 0.375000 0.125000
vt 0.875000 0.625000
vt 0.875000 0.500000
vt 0.375000 0.500000
vt 0.625000 0.500000
vn -0.0000 -0.7682 0.6402
vn -1.0000 0.0000 0.0000
vn 0.2913 0.6349 0.7156
vn 0.0000 0.7682 -0.6402
vn 0.0000 -0.7682 -0.6402
vn -0.7011 0.7130 0.0117
vn -0.7009 -0.7132 -0.0033
vn -0.0000 0.7682 0.6402
vn -0.7011 0.7130 -0.0117
vn 0.2923 -0.6319 0.7178
vn 0.2913 0.6349 -0.7156
vn 0.2923 -0.6319 -0.7178
vn -0.7009 -0.7132 0.0033
usemtl Material
s off
f 7/1/1 8/2/1 4/3/1 2/4/1
f 3/5/2 2/4/2 4/6/2 5/7/2
f 12/8/3 10/9/3 1/10/3
f 6/11/4 9/12/4 3/5/4 5/13/4
f 9/12/5 7/1/5 2/4/5 3/5/5
f 11/14/6 13/15/6 7/1/6 9/12/6
f 12/16/7 11/14/7 9/12/7 6/11/7
f 5/17/8 4/18/8 8/19/8 6/20/8
f 13/15/9 10/21/9 8/2/9 7/1/9
f 1/22/10 10/21/10 13/15/10
f 1/23/11 11/14/11 12/16/11
f 1/24/12 13/15/12 11/14/12
f 6/20/13 8/19/13 10/9/13 12/8/13
